<svg width="329" height="318" viewBox="0 0 329 318" fill="none" xmlns="http://www.w3.org/2000/svg">
<g filter="url(#filter0_d_2010_8420)">
<g clip-path="url(#clip0_2010_8420)">
<rect x="3" y="3" width="306" height="295" rx="12" fill="black"/>
<rect x="3" y="3" width="306" height="295" rx="12" fill="url(#paint0_linear_2010_8420)" fill-opacity="0.8"/>
<g clip-path="url(#clip1_2010_8420)">
<path d="M3.08523 -107.629H2.33374V332.629H3.08523V-107.629Z" fill="white" fill-opacity="0.12"/>
<path d="M17.7522 -107.629H17.0007V332.629H17.7522V-107.629Z" fill="white" fill-opacity="0.12"/>
<path d="M32.419 -107.629H31.6675V332.629H32.419V-107.629Z" fill="white" fill-opacity="0.12"/>
<path d="M47.086 -107.629H46.3345V332.629H47.086V-107.629Z" fill="white" fill-opacity="0.12"/>
<path d="M61.7615 -107.629H61.01V332.629H61.7615V-107.629Z" fill="white" fill-opacity="0.12"/>
<path d="M76.4282 -107.629H75.6768V332.629H76.4282V-107.629Z" fill="white" fill-opacity="0.12"/>
<path d="M91.0952 -107.629H90.3438V332.629H91.0952V-107.629Z" fill="white" fill-opacity="0.12"/>
<path d="M105.762 -107.629H105.011V332.629H105.762V-107.629Z" fill="white" fill-opacity="0.12"/>
<path d="M120.429 -107.629H119.677V332.629H120.429V-107.629Z" fill="white" fill-opacity="0.12"/>
<path d="M135.096 -107.629H134.344V332.629H135.096V-107.629Z" fill="white" fill-opacity="0.12"/>
<path d="M149.763 -107.629H149.011V332.629H149.763V-107.629Z" fill="white" fill-opacity="0.12"/>
<path d="M164.43 -107.629H163.678V332.629H164.43V-107.629Z" fill="white" fill-opacity="0.12"/>
<path d="M179.096 -107.629H178.345V332.629H179.096V-107.629Z" fill="white" fill-opacity="0.12"/>
<path d="M193.763 -107.629H193.012V332.629H193.763V-107.629Z" fill="white" fill-opacity="0.12"/>
<path d="M208.439 -107.629H207.688V332.629H208.439V-107.629Z" fill="white" fill-opacity="0.12"/>
<path d="M223.106 -107.629H222.354V332.629H223.106V-107.629Z" fill="white" fill-opacity="0.12"/>
<path d="M237.773 -107.629H237.021V332.629H237.773V-107.629Z" fill="white" fill-opacity="0.12"/>
<path d="M252.44 -107.629H251.688V332.629H252.44V-107.629Z" fill="white" fill-opacity="0.12"/>
<path d="M267.106 -107.629H266.355V332.629H267.106V-107.629Z" fill="white" fill-opacity="0.12"/>
<path d="M281.773 -107.629H281.022V332.629H281.773V-107.629Z" fill="white" fill-opacity="0.12"/>
<path d="M296.44 -107.629H295.689V332.629H296.44V-107.629Z" fill="white" fill-opacity="0.12"/>
<path d="M706.854 9.3783H-26.6287V10.1298H706.854V9.3783Z" fill="white" fill-opacity="0.12"/>
<path d="M706.854 24.0538H-26.6287V24.8053H706.854V24.0538Z" fill="white" fill-opacity="0.12"/>
<path d="M706.854 38.7207H-26.6287V39.4722H706.854V38.7207Z" fill="white" fill-opacity="0.12"/>
<path d="M706.854 53.3962H-26.6287V54.1477H706.854V53.3962Z" fill="white" fill-opacity="0.12"/>
<path d="M706.854 68.0718H-26.6287V68.8233H706.854V68.0718Z" fill="white" fill-opacity="0.12"/>
<path d="M706.854 82.7387H-26.6287V83.4902H706.854V82.7387Z" fill="white" fill-opacity="0.12"/>
<path d="M706.854 97.4142H-26.6287V98.1657H706.854V97.4142Z" fill="white" fill-opacity="0.12"/>
<path d="M706.854 112.081H-26.6287V112.833H706.854V112.081Z" fill="white" fill-opacity="0.12"/>
<path d="M706.854 126.757H-26.6287V127.508H706.854V126.757Z" fill="white" fill-opacity="0.12"/>
<path d="M706.854 141.432H-26.6287V142.184H706.854V141.432Z" fill="white" fill-opacity="0.12"/>
<path d="M706.854 156.099H-26.6287V156.85H706.854V156.099Z" fill="white" fill-opacity="0.12"/>
<path d="M706.854 170.775H-26.6287V171.526H706.854V170.775Z" fill="white" fill-opacity="0.12"/>
<path d="M706.854 185.45H-26.6287V186.202H706.854V185.45Z" fill="white" fill-opacity="0.12"/>
<path d="M706.854 200.117H-26.6287V200.868H706.854V200.117Z" fill="white" fill-opacity="0.12"/>
<path d="M706.854 214.792H-26.6287V215.544H706.854V214.792Z" fill="white" fill-opacity="0.12"/>
<path d="M706.854 229.459H-26.6287V230.211H706.854V229.459Z" fill="white" fill-opacity="0.12"/>
<path d="M706.854 244.135H-26.6287V244.886H706.854V244.135Z" fill="white" fill-opacity="0.12"/>
<path d="M706.854 258.81H-26.6287V259.562H706.854V258.81Z" fill="white" fill-opacity="0.12"/>
<path d="M706.854 273.564H-26.6287V274.315H706.854V273.564Z" fill="white" fill-opacity="0.12"/>
<path d="M706.854 288.239H-26.6287V288.991H706.854V288.239Z" fill="white" fill-opacity="0.12"/>
<path d="M271.926 38.7206H261.535V39.4721H271.926V38.7206Z" fill="#909090" fill-opacity="0.5"/>
<path d="M267.106 33.9008H266.355V44.292H267.106V33.9008Z" fill="#909090" fill-opacity="0.5"/>
<path d="M271.926 112.081H261.535V112.832H271.926V112.081Z" fill="#909090" fill-opacity="0.5"/>
<path d="M267.106 107.261H266.355V117.652H267.106V107.261Z" fill="#909090" fill-opacity="0.5"/>
<path d="M271.926 185.45H261.535V186.202H271.926V185.45Z" fill="#909090" fill-opacity="0.5"/>
<path d="M267.106 180.622H266.355V191.013H267.106V180.622Z" fill="#909090" fill-opacity="0.5"/>
<path d="M271.926 258.81H261.535V259.562H271.926V258.81Z" fill="#909090" fill-opacity="0.5"/>
<path d="M267.106 253.982H266.355V264.373H267.106V253.982Z" fill="#909090" fill-opacity="0.5"/>
<path d="M198.583 38.7206H188.192V39.4721H198.583V38.7206Z" fill="#909090" fill-opacity="0.5"/>
<path d="M193.763 33.9008H193.012V44.292H193.763V33.9008Z" fill="#909090" fill-opacity="0.5"/>
<path d="M198.583 112.081H188.192V112.832H198.583V112.081Z" fill="#909090" fill-opacity="0.5"/>
<path d="M193.763 107.261H193.012V117.652H193.763V107.261Z" fill="#909090" fill-opacity="0.5"/>
<path d="M198.583 185.45H188.192V186.202H198.583V185.45Z" fill="#909090" fill-opacity="0.5"/>
<path d="M193.763 180.622H193.012V191.013H193.763V180.622Z" fill="#909090" fill-opacity="0.5"/>
<path d="M198.583 258.81H188.192V259.562H198.583V258.81Z" fill="#909090" fill-opacity="0.5"/>
<path d="M193.763 253.982H193.012V264.373H193.763V253.982Z" fill="#909090" fill-opacity="0.5"/>
<path d="M125.249 38.7206H114.858V39.4721H125.249V38.7206Z" fill="#909090" fill-opacity="0.5"/>
<path d="M120.429 33.9008H119.677V44.292H120.429V33.9008Z" fill="#909090" fill-opacity="0.5"/>
<path d="M125.249 112.081H114.858V112.832H125.249V112.081Z" fill="#909090" fill-opacity="0.5"/>
<path d="M120.429 107.261H119.677V117.652H120.429V107.261Z" fill="#909090" fill-opacity="0.5"/>
<path d="M125.249 185.45H114.858V186.202H125.249V185.45Z" fill="#909090" fill-opacity="0.5"/>
<path d="M120.429 180.622H119.677V191.013H120.429V180.622Z" fill="#909090" fill-opacity="0.5"/>
<path d="M125.249 258.81H114.858V259.562H125.249V258.81Z" fill="#909090" fill-opacity="0.5"/>
<path d="M120.429 253.982H119.677V264.373H120.429V253.982Z" fill="#909090" fill-opacity="0.5"/>
<path d="M51.9056 38.7206H41.5144V39.4721H51.9056V38.7206Z" fill="#909090" fill-opacity="0.5"/>
<path d="M47.0857 33.9008H46.3342V44.292H47.0857V33.9008Z" fill="#909090" fill-opacity="0.5"/>
<path d="M51.9056 112.081H41.5144V112.832H51.9056V112.081Z" fill="#909090" fill-opacity="0.5"/>
<path d="M47.0857 107.261H46.3342V117.652H47.0857V107.261Z" fill="#909090" fill-opacity="0.5"/>
<path d="M51.9056 185.45H41.5144V186.202H51.9056V185.45Z" fill="#909090" fill-opacity="0.5"/>
<path d="M47.0857 180.622H46.3342V191.013H47.0857V180.622Z" fill="#909090" fill-opacity="0.5"/>
<path d="M51.9056 258.81H41.5144V259.562H51.9056V258.81Z" fill="#909090" fill-opacity="0.5"/>
<path d="M47.0857 253.982H46.3342V264.373H47.0857V253.982Z" fill="#909090" fill-opacity="0.5"/>
<rect x="2" y="1" width="323" height="297" fill="url(#paint1_radial_2010_8420)" fill-opacity="0.78"/>
</g>
</g>
<rect x="3.5" y="3.5" width="305" height="294" rx="11.5" stroke="#FF4400" stroke-opacity="0.15"/>
</g>
<defs>
<filter id="filter0_d_2010_8420" x="-16.7" y="-16.7" width="345.4" height="334.4" filterUnits="userSpaceOnUse" color-interpolation-filters="sRGB">
<feFlood flood-opacity="0" result="BackgroundImageFix"/>
<feColorMatrix in="SourceAlpha" type="matrix" values="0 0 0 0 0 0 0 0 0 0 0 0 0 0 0 0 0 0 127 0" result="hardAlpha"/>
<feOffset/>
<feGaussianBlur stdDeviation="9.85"/>
<feComposite in2="hardAlpha" operator="out"/>
<feColorMatrix type="matrix" values="0 0 0 0 1 0 0 0 0 0.266667 0 0 0 0 0 0 0 0 0.25 0"/>
<feBlend mode="normal" in2="BackgroundImageFix" result="effect1_dropShadow_2010_8420"/>
<feBlend mode="normal" in="SourceGraphic" in2="effect1_dropShadow_2010_8420" result="shape"/>
</filter>
<linearGradient id="paint0_linear_2010_8420" x1="156" y1="3" x2="156" y2="298" gradientUnits="userSpaceOnUse">
<stop stop-opacity="0"/>
<stop offset="1" stop-color="#FF4400"/>
</linearGradient>
<radialGradient id="paint1_radial_2010_8420" cx="0" cy="0" r="1" gradientUnits="userSpaceOnUse" gradientTransform="translate(268 52) rotate(118.362) scale(349.446 380.037)">
<stop stop-opacity="0"/>
<stop offset="1"/>
</radialGradient>
<clipPath id="clip0_2010_8420">
<rect x="3" y="3" width="306" height="295" rx="12" fill="white"/>
</clipPath>
<clipPath id="clip1_2010_8420">
<rect width="734.13" height="441" fill="white" transform="translate(-27 -108)"/>
</clipPath>
</defs>
</svg>
