<svg width="1440" height="2232" viewBox="0 0 1440 2232" fill="none" xmlns="http://www.w3.org/2000/svg">
<path d="M0 24C0 10.7451 10.7452 0 24 0H1416C1429.25 0 1440 10.7452 1440 24V2208C1440 2221.25 1429.25 2232 1416 2232H24C10.7451 2232 0 2221.25 0 2208V24Z" fill="black"/>
<path d="M0 24C0 10.7451 10.7452 0 24 0H1416C1429.25 0 1440 10.7452 1440 24V2208C1440 2221.25 1429.25 2232 1416 2232H24C10.7451 2232 0 2221.25 0 2208V24Z" fill="url(#paint0_linear_3173_18410)" fill-opacity="0.33"/>
<path d="M0 24C0 10.7451 10.7452 0 24 0H1416C1429.25 0 1440 10.7452 1440 24V2208C1440 2221.25 1429.25 2232 1416 2232H24C10.7451 2232 0 2221.25 0 2208V24Z" fill="url(#paint1_radial_3173_18410)" fill-opacity="0.77"/>
<path d="M0 24C0 10.7451 10.7452 0 24 0H1416C1429.25 0 1440 10.7452 1440 24V2208C1440 2221.25 1429.25 2232 1416 2232H24C10.7451 2232 0 2221.25 0 2208V24Z" fill="url(#paint2_radial_3173_18410)"/>
<defs>
<linearGradient id="paint0_linear_3173_18410" x1="720" y1="0" x2="720" y2="2232" gradientUnits="userSpaceOnUse">
<stop stop-opacity="0"/>
<stop offset="1" stop-color="#FF4400"/>
</linearGradient>
<radialGradient id="paint1_radial_3173_18410" cx="0" cy="0" r="1" gradientUnits="userSpaceOnUse" gradientTransform="translate(720 2324.15) rotate(90) scale(482.348 563.129)">
<stop stop-color="#FF7700"/>
<stop offset="1" stop-opacity="0"/>
</radialGradient>
<radialGradient id="paint2_radial_3173_18410" cx="0" cy="0" r="1" gradientUnits="userSpaceOnUse" gradientTransform="translate(720 1327.6) rotate(90) scale(627.963 733.13)">
<stop stop-color="#030100"/>
<stop offset="1" stop-opacity="0"/>
</radialGradient>
</defs>
</svg>
